<?xml version="1.0" encoding="UTF-8" standalone="no"?>
<svg width="480" height="640" viewBox="0 0 480 640" xmlns="http://www.w3.org/2000/svg">
  <!-- Sky gradient -->
  <defs>
    <linearGradient id="skyGradient" x1="0%" y1="0%" x2="0%" y2="100%">
      <stop offset="0%" stop-color="#1a1a2e" />
      <stop offset="100%" stop-color="#16213e" />
    </linearGradient>
    <linearGradient id="buildingGradient" x1="0%" y1="0%" x2="0%" y2="100%">
      <stop offset="0%" stop-color="#0f3460" />
      <stop offset="100%" stop-color="#0a1931" />
    </linearGradient>
  </defs>
  
  <!-- Background -->
  <rect width="480" height="640" fill="url(#skyGradient)" />
  
  <!-- Stars -->
  <g fill="#ffffff">
    <circle cx="50" cy="50" r="1" opacity="0.8" />
    <circle cx="120" cy="80" r="1.5" opacity="0.7" />
    <circle cx="200" cy="40" r="1" opacity="0.9" />
    <circle cx="280" cy="120" r="1.2" opacity="0.8" />
    <circle cx="350" cy="60" r="1" opacity="0.7" />
    <circle cx="420" cy="100" r="1.5" opacity="0.9" />
    <circle cx="80" cy="150" r="1" opacity="0.8" />
    <circle cx="180" cy="180" r="1.2" opacity="0.7" />
    <circle cx="300" cy="200" r="1" opacity="0.9" />
    <circle cx="400" cy="220" r="1.5" opacity="0.8" />
    <circle cx="100" cy="250" r="1" opacity="0.7" />
    <circle cx="220" cy="280" r="1.2" opacity="0.9" />
    <circle cx="320" cy="300" r="1" opacity="0.8" />
    <circle cx="450" cy="320" r="1.5" opacity="0.7" />
  </g>
  
  <!-- Moon -->
  <circle cx="400" cy="100" r="30" fill="#f5f5f5" opacity="0.8" />
  <circle cx="385" cy="90" r="8" fill="#e0e0e0" opacity="0.6" />
  <circle cx="410" cy="110" r="6" fill="#e0e0e0" opacity="0.6" />
  
  <!-- Distant city silhouette -->
  <path d="M 0 350 
           L 20 340 L 40 350 L 60 330 L 80 340 
           L 100 320 L 120 330 L 140 310 L 160 330 
           L 180 300 L 200 320 L 220 290 L 240 310 
           L 260 280 L 280 300 L 300 270 L 320 290 
           L 340 260 L 360 280 L 380 250 L 400 270 
           L 420 240 L 440 260 L 460 230 L 480 250 
           L 480 640 L 0 640 Z" 
        fill="url(#buildingGradient)" opacity="0.7" />
</svg>
