<?xml version="1.0" encoding="UTF-8" standalone="no"?>
<svg width="480" height="280" viewBox="0 0 480 280" xmlns="http://www.w3.org/2000/svg">
  <!-- Buildings -->
  <defs>
    <linearGradient id="buildingGradient1" x1="0%" y1="0%" x2="0%" y2="100%">
      <stop offset="0%" stop-color="#2c3e50" />
      <stop offset="100%" stop-color="#1a1a2a" />
    </linearGradient>
    <linearGradient id="buildingGradient2" x1="0%" y1="0%" x2="0%" y2="100%">
      <stop offset="0%" stop-color="#34495e" />
      <stop offset="100%" stop-color="#2c3e50" />
    </linearGradient>
    <linearGradient id="windowGlow" x1="0%" y1="0%" x2="0%" y2="100%">
      <stop offset="0%" stop-color="#f39c12" />
      <stop offset="100%" stop-color="#e67e22" />
    </linearGradient>
    <linearGradient id="neonGlow" x1="0%" y1="0%" x2="100%" y2="0%">
      <stop offset="0%" stop-color="#e74c3c" />
      <stop offset="50%" stop-color="#3498db" />
      <stop offset="100%" stop-color="#2ecc71" />
    </linearGradient>
  </defs>
  
  <!-- Building 1 -->
  <rect x="0" y="80" width="60" height="200" fill="url(#buildingGradient1)" />
  <rect x="10" y="100" width="10" height="15" fill="#f1c40f" opacity="0.7" />
  <rect x="30" y="100" width="10" height="15" fill="#f1c40f" opacity="0.7" />
  <rect x="10" y="130" width="10" height="15" fill="#f1c40f" opacity="0.7" />
  <rect x="30" y="130" width="10" height="15" fill="#f1c40f" opacity="0.7" />
  <rect x="10" y="160" width="10" height="15" fill="#f1c40f" opacity="0.7" />
  <rect x="30" y="160" width="10" height="15" fill="#f1c40f" opacity="0.7" />
  <rect x="10" y="190" width="10" height="15" fill="#f1c40f" opacity="0.7" />
  <rect x="30" y="190" width="10" height="15" fill="#f1c40f" opacity="0.7" />
  <rect x="10" y="220" width="10" height="15" fill="#f1c40f" opacity="0.7" />
  <rect x="30" y="220" width="10" height="15" fill="#f1c40f" opacity="0.7" />
  
  <!-- Building 2 -->
  <rect x="70" y="40" width="80" height="240" fill="url(#buildingGradient2)" />
  <rect x="80" y="60" width="10" height="15" fill="#f1c40f" opacity="0.5" />
  <rect x="100" y="60" width="10" height="15" fill="#f1c40f" opacity="0.7" />
  <rect x="120" y="60" width="10" height="15" fill="#f1c40f" opacity="0.5" />
  <rect x="80" y="90" width="10" height="15" fill="#f1c40f" opacity="0.7" />
  <rect x="100" y="90" width="10" height="15" fill="#f1c40f" opacity="0.5" />
  <rect x="120" y="90" width="10" height="15" fill="#f1c40f" opacity="0.7" />
  <rect x="80" y="120" width="10" height="15" fill="#f1c40f" opacity="0.5" />
  <rect x="100" y="120" width="10" height="15" fill="#f1c40f" opacity="0.7" />
  <rect x="120" y="120" width="10" height="15" fill="#f1c40f" opacity="0.5" />
  <rect x="80" y="150" width="10" height="15" fill="#f1c40f" opacity="0.7" />
  <rect x="100" y="150" width="10" height="15" fill="#f1c40f" opacity="0.5" />
  <rect x="120" y="150" width="10" height="15" fill="#f1c40f" opacity="0.7" />
  <rect x="80" y="180" width="10" height="15" fill="#f1c40f" opacity="0.5" />
  <rect x="100" y="180" width="10" height="15" fill="#f1c40f" opacity="0.7" />
  <rect x="120" y="180" width="10" height="15" fill="#f1c40f" opacity="0.5" />
  <rect x="80" y="210" width="10" height="15" fill="#f1c40f" opacity="0.7" />
  <rect x="100" y="210" width="10" height="15" fill="#f1c40f" opacity="0.5" />
  <rect x="120" y="210" width="10" height="15" fill="#f1c40f" opacity="0.7" />
  <rect x="80" y="240" width="10" height="15" fill="#f1c40f" opacity="0.5" />
  <rect x="100" y="240" width="10" height="15" fill="#f1c40f" opacity="0.7" />
  <rect x="120" y="240" width="10" height="15" fill="#f1c40f" opacity="0.5" />
  
  <!-- Building 3 -->
  <rect x="160" y="100" width="50" height="180" fill="url(#buildingGradient1)" />
  <rect x="170" y="120" width="10" height="15" fill="#f1c40f" opacity="0.7" />
  <rect x="190" y="120" width="10" height="15" fill="#f1c40f" opacity="0.7" />
  <rect x="170" y="150" width="10" height="15" fill="#f1c40f" opacity="0.7" />
  <rect x="190" y="150" width="10" height="15" fill="#f1c40f" opacity="0.7" />
  <rect x="170" y="180" width="10" height="15" fill="#f1c40f" opacity="0.7" />
  <rect x="190" y="180" width="10" height="15" fill="#f1c40f" opacity="0.7" />
  <rect x="170" y="210" width="10" height="15" fill="#f1c40f" opacity="0.7" />
  <rect x="190" y="210" width="10" height="15" fill="#f1c40f" opacity="0.7" />
  <rect x="170" y="240" width="10" height="15" fill="#f1c40f" opacity="0.7" />
  <rect x="190" y="240" width="10" height="15" fill="#f1c40f" opacity="0.7" />
  
  <!-- Building 4 - Skyscraper -->
  <rect x="220" y="20" width="70" height="260" fill="url(#buildingGradient2)" />
  <rect x="230" y="40" width="10" height="15" fill="#f1c40f" opacity="0.6" />
  <rect x="250" y="40" width="10" height="15" fill="#f1c40f" opacity="0.6" />
  <rect x="270" y="40" width="10" height="15" fill="#f1c40f" opacity="0.6" />
  <rect x="230" y="70" width="10" height="15" fill="#f1c40f" opacity="0.6" />
  <rect x="250" y="70" width="10" height="15" fill="#f1c40f" opacity="0.6" />
  <rect x="270" y="70" width="10" height="15" fill="#f1c40f" opacity="0.6" />
  <rect x="230" y="100" width="10" height="15" fill="#f1c40f" opacity="0.6" />
  <rect x="250" y="100" width="10" height="15" fill="#f1c40f" opacity="0.6" />
  <rect x="270" y="100" width="10" height="15" fill="#f1c40f" opacity="0.6" />
  <rect x="230" y="130" width="10" height="15" fill="#f1c40f" opacity="0.6" />
  <rect x="250" y="130" width="10" height="15" fill="#f1c40f" opacity="0.6" />
  <rect x="270" y="130" width="10" height="15" fill="#f1c40f" opacity="0.6" />
  <rect x="230" y="160" width="10" height="15" fill="#f1c40f" opacity="0.6" />
  <rect x="250" y="160" width="10" height="15" fill="#f1c40f" opacity="0.6" />
  <rect x="270" y="160" width="10" height="15" fill="#f1c40f" opacity="0.6" />
  <rect x="230" y="190" width="10" height="15" fill="#f1c40f" opacity="0.6" />
  <rect x="250" y="190" width="10" height="15" fill="#f1c40f" opacity="0.6" />
  <rect x="270" y="190" width="10" height="15" fill="#f1c40f" opacity="0.6" />
  <rect x="230" y="220" width="10" height="15" fill="#f1c40f" opacity="0.6" />
  <rect x="250" y="220" width="10" height="15" fill="#f1c40f" opacity="0.6" />
  <rect x="270" y="220" width="10" height="15" fill="#f1c40f" opacity="0.6" />
  <rect x="230" y="250" width="10" height="15" fill="#f1c40f" opacity="0.6" />
  <rect x="250" y="250" width="10" height="15" fill="#f1c40f" opacity="0.6" />
  <rect x="270" y="250" width="10" height="15" fill="#f1c40f" opacity="0.6" />
  
  <!-- Building 5 -->
  <rect x="300" y="120" width="60" height="160" fill="url(#buildingGradient1)" />
  <rect x="310" y="140" width="10" height="15" fill="#f1c40f" opacity="0.7" />
  <rect x="330" y="140" width="10" height="15" fill="#f1c40f" opacity="0.7" />
  <rect x="310" y="170" width="10" height="15" fill="#f1c40f" opacity="0.7" />
  <rect x="330" y="170" width="10" height="15" fill="#f1c40f" opacity="0.7" />
  <rect x="310" y="200" width="10" height="15" fill="#f1c40f" opacity="0.7" />
  <rect x="330" y="200" width="10" height="15" fill="#f1c40f" opacity="0.7" />
  <rect x="310" y="230" width="10" height="15" fill="#f1c40f" opacity="0.7" />
  <rect x="330" y="230" width="10" height="15" fill="#f1c40f" opacity="0.7" />
  
  <!-- Building 6 -->
  <rect x="370" y="60" width="90" height="220" fill="url(#buildingGradient2)" />
  <rect x="380" y="80" width="10" height="15" fill="#f1c40f" opacity="0.6" />
  <rect x="400" y="80" width="10" height="15" fill="#f1c40f" opacity="0.6" />
  <rect x="420" y="80" width="10" height="15" fill="#f1c40f" opacity="0.6" />
  <rect x="440" y="80" width="10" height="15" fill="#f1c40f" opacity="0.6" />
  <rect x="380" y="110" width="10" height="15" fill="#f1c40f" opacity="0.6" />
  <rect x="400" y="110" width="10" height="15" fill="#f1c40f" opacity="0.6" />
  <rect x="420" y="110" width="10" height="15" fill="#f1c40f" opacity="0.6" />
  <rect x="440" y="110" width="10" height="15" fill="#f1c40f" opacity="0.6" />
  <rect x="380" y="140" width="10" height="15" fill="#f1c40f" opacity="0.6" />
  <rect x="400" y="140" width="10" height="15" fill="#f1c40f" opacity="0.6" />
  <rect x="420" y="140" width="10" height="15" fill="#f1c40f" opacity="0.6" />
  <rect x="440" y="140" width="10" height="15" fill="#f1c40f" opacity="0.6" />
  <rect x="380" y="170" width="10" height="15" fill="#f1c40f" opacity="0.6" />
  <rect x="400" y="170" width="10" height="15" fill="#f1c40f" opacity="0.6" />
  <rect x="420" y="170" width="10" height="15" fill="#f1c40f" opacity="0.6" />
  <rect x="440" y="170" width="10" height="15" fill="#f1c40f" opacity="0.6" />
  <rect x="380" y="200" width="10" height="15" fill="#f1c40f" opacity="0.6" />
  <rect x="400" y="200" width="10" height="15" fill="#f1c40f" opacity="0.6" />
  <rect x="420" y="200" width="10" height="15" fill="#f1c40f" opacity="0.6" />
  <rect x="440" y="200" width="10" height="15" fill="#f1c40f" opacity="0.6" />
  <rect x="380" y="230" width="10" height="15" fill="#f1c40f" opacity="0.6" />
  <rect x="400" y="230" width="10" height="15" fill="#f1c40f" opacity="0.6" />
  <rect x="420" y="230" width="10" height="15" fill="#f1c40f" opacity="0.6" />
  <rect x="440" y="230" width="10" height="15" fill="#f1c40f" opacity="0.6" />
  
  <!-- Neon signs -->
  <rect x="100" y="30" width="30" height="10" fill="url(#neonGlow)" opacity="0.8" />
  <rect x="240" y="10" width="40" height="10" fill="url(#neonGlow)" opacity="0.8" />
  <rect x="380" y="50" width="30" height="10" fill="url(#neonGlow)" opacity="0.8" />
</svg>
