<?xml version="1.0" encoding="UTF-8" standalone="no"?>
<svg width="128" height="64" viewBox="0 0 128 64" xmlns="http://www.w3.org/2000/svg">
  <!-- Orb 1 -->
  <g transform="translate(0, 0)">
    <circle cx="16" cy="16" r="12" fill="#3498db" />
    <circle cx="16" cy="16" r="8" fill="#2980b9" />
    <circle cx="12" cy="12" r="2" fill="#ecf0f1" />
  </g>
  
  <!-- Orb 2 -->
  <g transform="translate(32, 0)">
    <circle cx="16" cy="16" r="12" fill="#2ecc71" />
    <circle cx="16" cy="16" r="8" fill="#27ae60" />
    <circle cx="12" cy="12" r="2" fill="#ecf0f1" />
  </g>
  
  <!-- Orb 3 -->
  <g transform="translate(64, 0)">
    <circle cx="16" cy="16" r="12" fill="#e74c3c" />
    <circle cx="16" cy="16" r="8" fill="#c0392b" />
    <circle cx="12" cy="12" r="2" fill="#ecf0f1" />
  </g>
  
  <!-- Orb 4 -->
  <g transform="translate(96, 0)">
    <circle cx="16" cy="16" r="12" fill="#f1c40f" />
    <circle cx="16" cy="16" r="8" fill="#f39c12" />
    <circle cx="12" cy="12" r="2" fill="#ecf0f1" />
  </g>
  
  <!-- Powerup Shield -->
  <g transform="translate(0, 32)">
    <circle cx="16" cy="16" r="12" fill="#9b59b6" opacity="0.6" />
    <circle cx="16" cy="16" r="10" fill="none" stroke="#8e44ad" stroke-width="2" />
    <path d="M 16 8 L 20 12 L 16 24 L 12 12 Z" fill="#8e44ad" />
  </g>
  
  <!-- Powerup Magnet -->
  <g transform="translate(32, 32)">
    <circle cx="16" cy="16" r="12" fill="#e67e22" opacity="0.6" />
    <path d="M 10 10 L 22 10 L 22 18 C 22 22 16 24 16 24 C 16 24 10 22 10 18 Z" fill="#d35400" />
    <rect x="10" y="8" width="12" height="4" fill="#c0392b" />
  </g>
  
  <!-- Powerup Double Jump -->
  <g transform="translate(64, 32)">
    <circle cx="16" cy="16" r="12" fill="#1abc9c" opacity="0.6" />
    <path d="M 10 20 L 16 12 L 22 20 Z" fill="#16a085" />
    <path d="M 10 14 L 16 6 L 22 14 Z" fill="#16a085" />
  </g>
  
  <!-- Powerup Slow Time -->
  <g transform="translate(96, 32)">
    <circle cx="16" cy="16" r="12" fill="#34495e" opacity="0.6" />
    <circle cx="16" cy="16" r="8" fill="none" stroke="#2c3e50" stroke-width="2" />
    <line x1="16" y1="10" x2="16" y2="16" stroke="#2c3e50" stroke-width="2" />
    <line x1="16" y1="16" x2="20" y2="20" stroke="#2c3e50" stroke-width="2" />
  </g>
</svg>
