<?xml version="1.0" encoding="UTF-8" standalone="no"?>
<svg width="256" height="128" viewBox="0 0 256 128" xmlns="http://www.w3.org/2000/svg">
  <!-- Player Idle -->
  <g transform="translate(0, 0)">
    <rect x="12" y="8" width="40" height="48" rx="4" fill="#3498db" />
    <rect x="20" y="16" width="24" height="12" rx="2" fill="#2c3e50" />
    <rect x="16" y="56" width="8" height="8" fill="#2c3e50" />
    <rect x="40" y="56" width="8" height="8" fill="#2c3e50" />
    <rect x="24" y="36" width="16" height="4" rx="2" fill="#e74c3c" />
  </g>
  
  <!-- Player Run 1 -->
  <g transform="translate(64, 0)">
    <rect x="12" y="8" width="40" height="48" rx="4" fill="#3498db" />
    <rect x="20" y="16" width="24" height="12" rx="2" fill="#2c3e50" />
    <rect x="16" y="56" width="8" height="8" fill="#2c3e50" />
    <rect x="40" y="56" width="8" height="8" fill="#2c3e50" />
    <rect x="24" y="36" width="16" height="4" rx="2" fill="#e74c3c" />
    <rect x="8" y="48" width="12" height="4" rx="1" fill="#3498db" transform="rotate(-30 8 48)" />
    <rect x="44" y="48" width="12" height="4" rx="1" fill="#3498db" transform="rotate(30 44 48)" />
  </g>
  
  <!-- Player Run 2 -->
  <g transform="translate(128, 0)">
    <rect x="12" y="8" width="40" height="48" rx="4" fill="#3498db" />
    <rect x="20" y="16" width="24" height="12" rx="2" fill="#2c3e50" />
    <rect x="12" y="56" width="8" height="8" fill="#2c3e50" />
    <rect x="44" y="56" width="8" height="8" fill="#2c3e50" />
    <rect x="24" y="36" width="16" height="4" rx="2" fill="#e74c3c" />
    <rect x="8" y="48" width="12" height="4" rx="1" fill="#3498db" transform="rotate(30 8 48)" />
    <rect x="44" y="48" width="12" height="4" rx="1" fill="#3498db" transform="rotate(-30 44 48)" />
  </g>
  
  <!-- Player Run 3 -->
  <g transform="translate(192, 0)">
    <rect x="12" y="8" width="40" height="48" rx="4" fill="#3498db" />
    <rect x="20" y="16" width="24" height="12" rx="2" fill="#2c3e50" />
    <rect x="16" y="56" width="8" height="8" fill="#2c3e50" />
    <rect x="40" y="56" width="8" height="8" fill="#2c3e50" />
    <rect x="24" y="36" width="16" height="4" rx="2" fill="#e74c3c" />
  </g>
  
  <!-- Player Jump -->
  <g transform="translate(0, 64)">
    <rect x="12" y="4" width="40" height="48" rx="4" fill="#3498db" />
    <rect x="20" y="12" width="24" height="12" rx="2" fill="#2c3e50" />
    <rect x="16" y="52" width="8" height="8" fill="#2c3e50" transform="rotate(-30 16 52)" />
    <rect x="40" y="52" width="8" height="8" fill="#2c3e50" transform="rotate(30 40 52)" />
    <rect x="24" y="32" width="16" height="4" rx="2" fill="#e74c3c" />
  </g>
  
  <!-- Player Fall -->
  <g transform="translate(64, 64)">
    <rect x="12" y="4" width="40" height="48" rx="4" fill="#3498db" />
    <rect x="20" y="12" width="24" height="12" rx="2" fill="#2c3e50" />
    <rect x="16" y="52" width="8" height="8" fill="#2c3e50" transform="rotate(30 16 52)" />
    <rect x="40" y="52" width="8" height="8" fill="#2c3e50" transform="rotate(-30 40 52)" />
    <rect x="24" y="32" width="16" height="4" rx="2" fill="#e74c3c" />
  </g>
  
  <!-- Player Hit -->
  <g transform="translate(128, 64)">
    <rect x="12" y="8" width="40" height="48" rx="4" fill="#e74c3c" />
    <rect x="20" y="16" width="24" height="12" rx="2" fill="#2c3e50" />
    <rect x="16" y="56" width="8" height="8" fill="#2c3e50" />
    <rect x="40" y="56" width="8" height="8" fill="#2c3e50" />
    <rect x="24" y="36" width="16" height="4" rx="2" fill="#f1c40f" />
    <line x1="24" y1="20" x2="32" y2="28" stroke="#f1c40f" stroke-width="2" />
    <line x1="32" y1="20" x2="24" y2="28" stroke="#f1c40f" stroke-width="2" />
    <line x1="40" y1="20" x2="48" y2="28" stroke="#f1c40f" stroke-width="2" />
    <line x1="48" y1="20" x2="40" y2="28" stroke="#f1c40f" stroke-width="2" />
  </g>
</svg>
